<svg xmlns="http://www.w3.org/2000/svg" xmlns:xlink="http://www.w3.org/1999/xlink" width="1920" zoomAndPan="magnify" viewBox="0 0 1440 809.999993" height="1080" preserveAspectRatio="xMidYMid meet" version="1.0"><defs><clipPath id="5ffbaab28f"><path d="M 342 168.015625 L 608 168.015625 L 608 642 L 342 642 Z M 342 168.015625 " clip-rule="nonzero"/></clipPath><clipPath id="7ec80b9a2b"><path d="M 592.570312 436.414062 C 592.570312 495.078125 545.011719 542.636719 486.347656 542.636719 L 463.808594 542.636719 C 405.121094 542.636719 357.570312 495.078125 357.570312 436.414062 L 357.570312 373.585938 C 357.570312 314.921875 405.128906 267.363281 463.808594 267.363281 L 486.347656 267.363281 C 545.011719 267.363281 592.570312 314.921875 592.570312 373.585938 Z M 490.230469 168.019531 L 459.925781 168.019531 C 395.027344 168.019531 342.421875 220.625 342.421875 285.519531 L 342.421875 524.480469 C 342.421875 589.375 395.027344 641.980469 459.925781 641.980469 L 490.238281 641.980469 C 555.136719 641.980469 607.742188 589.375 607.742188 524.480469 L 607.742188 285.519531 C 607.734375 220.625 555.128906 168.019531 490.230469 168.019531 " clip-rule="nonzero"/></clipPath><clipPath id="6a20986d03"><path d="M 0.238281 0.015625 L 265.921875 0.015625 L 265.921875 474 L 0.238281 474 Z M 0.238281 0.015625 " clip-rule="nonzero"/></clipPath><clipPath id="f59cc4dc7d"><path d="M 250.570312 268.414062 C 250.570312 327.078125 203.011719 374.636719 144.347656 374.636719 L 121.808594 374.636719 C 63.121094 374.636719 15.570312 327.078125 15.570312 268.414062 L 15.570312 205.585938 C 15.570312 146.921875 63.128906 99.363281 121.808594 99.363281 L 144.347656 99.363281 C 203.011719 99.363281 250.570312 146.921875 250.570312 205.585938 Z M 148.230469 0.0195312 L 117.925781 0.0195312 C 53.027344 0.0195312 0.421875 52.625 0.421875 117.519531 L 0.421875 356.480469 C 0.421875 421.375 53.027344 473.980469 117.925781 473.980469 L 148.238281 473.980469 C 213.136719 473.980469 265.742188 421.375 265.742188 356.480469 L 265.742188 117.519531 C 265.734375 52.625 213.128906 0.0195312 148.230469 0.0195312 " clip-rule="nonzero"/></clipPath><clipPath id="aac3d331ac"><rect x="0" width="266" y="0" height="474"/></clipPath><clipPath id="9dbe5fd6ce"><path d="M 606 168.015625 L 835.175781 168.015625 L 835.175781 642 L 606 642 Z M 606 168.015625 " clip-rule="nonzero"/></clipPath><clipPath id="aac5059124"><path d="M 835.171875 541.488281 L 778.867188 541.421875 L 778.9375 168.019531 L 753.113281 168.167969 L 636.992188 267.3125 L 637.097656 330.640625 C 700.304688 331.617188 748.074219 385.742188 741.722656 448.054688 C 734.695312 501.042969 690.136719 540.429688 636.976562 541.496094 L 606.519531 541.496094 L 606.519531 641.980469 L 668.070312 641.980469 L 835.148438 641.972656 Z M 835.171875 541.488281 " clip-rule="nonzero"/></clipPath><clipPath id="fbc9bd86d3"><path d="M 0.480469 0.015625 L 229.175781 0.015625 L 229.175781 474 L 0.480469 474 Z M 0.480469 0.015625 " clip-rule="nonzero"/></clipPath><clipPath id="2b3898c594"><path d="M 229.171875 373.488281 L 172.867188 373.421875 L 172.9375 0.0195312 L 147.113281 0.167969 L 30.992188 99.3125 L 31.097656 162.640625 C 94.304688 163.617188 142.074219 217.742188 135.722656 280.054688 C 128.695312 333.042969 84.136719 372.429688 30.976562 373.496094 L 0.519531 373.496094 L 0.519531 473.980469 L 62.070312 473.980469 L 229.148438 473.972656 Z M 229.171875 373.488281 " clip-rule="nonzero"/></clipPath><clipPath id="b45931af30"><rect x="0" width="230" y="0" height="474"/></clipPath><clipPath id="feac3e694b"><path d="M 125.992188 168.015625 L 344 168.015625 L 344 642 L 125.992188 642 Z M 125.992188 168.015625 " clip-rule="nonzero"/></clipPath><clipPath id="557175d7b9"><path d="M 343.644531 541.488281 L 287.339844 541.421875 L 287.402344 168.019531 L 261.578125 168.167969 L 145.457031 267.3125 L 145.5625 330.640625 C 208.773438 331.617188 256.539062 385.742188 250.1875 448.054688 C 243.160156 501.042969 198.601562 540.429688 145.441406 541.496094 L 125.992188 541.496094 L 125.992188 641.980469 L 175.382812 641.980469 L 343.613281 641.972656 Z M 343.644531 541.488281 " clip-rule="nonzero"/></clipPath><clipPath id="1b461398d2"><path d="M 0.992188 0.015625 L 218.679688 0.015625 L 218.679688 474 L 0.992188 474 Z M 0.992188 0.015625 " clip-rule="nonzero"/></clipPath><clipPath id="607882b46a"><path d="M 218.644531 373.488281 L 162.339844 373.421875 L 162.402344 0.0195312 L 136.578125 0.167969 L 20.457031 99.3125 L 20.5625 162.640625 C 83.773438 163.617188 131.539062 217.742188 125.1875 280.054688 C 118.160156 333.042969 73.601562 372.429688 20.441406 373.496094 L 0.992188 373.496094 L 0.992188 473.980469 L 50.382812 473.980469 L 218.613281 473.972656 Z M 218.644531 373.488281 " clip-rule="nonzero"/></clipPath><clipPath id="62c63156fc"><rect x="0" width="219" y="0" height="474"/></clipPath><clipPath id="c736c95837"><path d="M 857.15625 541.496094 L 934.15625 541.496094 L 934.15625 642.554688 L 857.15625 642.554688 Z M 857.15625 541.496094 " clip-rule="nonzero"/></clipPath><clipPath id="b3ddfdb65d"><path d="M 891.230469 622.167969 L 885.117188 622.167969 L 885.117188 599.203125 L 891.222656 599.203125 C 903.6875 599.203125 905.546875 606.394531 905.546875 610.691406 C 905.546875 614.976562 903.6875 622.167969 891.222656 622.167969 M 885.117188 561.71875 L 891.222656 561.71875 C 897.710938 561.71875 901.4375 565.210938 901.4375 571.304688 C 901.4375 577.492188 897.800781 580.886719 891.222656 580.886719 L 885.117188 580.886719 Z M 932.359375 601.167969 C 931.121094 598.304688 929.773438 595.925781 928.316406 594.085938 C 926.609375 591.996094 924.671875 590.242188 922.566406 588.90625 L 919.933594 587.234375 L 922.300781 585.214844 C 923.585938 584.105469 924.761719 582.695312 925.789062 581.015625 C 926.644531 579.597656 927.476562 577.746094 928.273438 575.519531 C 929.023438 573.402344 929.40625 570.761719 929.40625 567.664062 C 929.40625 563.300781 928.609375 559.46875 927.042969 556.273438 C 925.460938 553.085938 923.238281 550.371094 920.433594 548.226562 C 917.570312 546.058594 914.050781 544.371094 909.988281 543.238281 C 905.824219 542.082031 901.167969 541.496094 896.121094 541.496094 L 857.15625 541.496094 L 857.15625 642.378906 L 897.867188 642.378906 C 903.515625 642.378906 908.675781 641.652344 913.21875 640.199219 C 917.699219 638.78125 921.523438 636.6875 924.582031 634.019531 C 927.628906 631.347656 930.003906 628.09375 931.664062 624.304688 C 933.3125 620.511719 934.152344 616.191406 934.152344 611.464844 C 934.152344 607.378906 933.550781 603.90625 932.359375 601.152344 " clip-rule="nonzero"/></clipPath><clipPath id="a13b8a7370"><path d="M 0.15625 0.496094 L 77.15625 0.496094 L 77.15625 101.480469 L 0.15625 101.480469 Z M 0.15625 0.496094 " clip-rule="nonzero"/></clipPath><clipPath id="2404a2225d"><path d="M 34.230469 81.167969 L 28.117188 81.167969 L 28.117188 58.203125 L 34.222656 58.203125 C 46.6875 58.203125 48.546875 65.394531 48.546875 69.691406 C 48.546875 73.976562 46.6875 81.167969 34.222656 81.167969 M 28.117188 20.71875 L 34.222656 20.71875 C 40.710938 20.71875 44.4375 24.210938 44.4375 30.304688 C 44.4375 36.492188 40.800781 39.886719 34.222656 39.886719 L 28.117188 39.886719 Z M 75.359375 60.167969 C 74.121094 57.304688 72.773438 54.925781 71.316406 53.085938 C 69.609375 50.996094 67.671875 49.242188 65.566406 47.90625 L 62.933594 46.234375 L 65.300781 44.214844 C 66.585938 43.105469 67.761719 41.695312 68.789062 40.015625 C 69.644531 38.597656 70.476562 36.746094 71.273438 34.519531 C 72.023438 32.402344 72.40625 29.761719 72.40625 26.664062 C 72.40625 22.300781 71.609375 18.46875 70.042969 15.273438 C 68.460938 12.085938 66.238281 9.371094 63.433594 7.226562 C 60.570312 5.058594 57.050781 3.371094 52.988281 2.238281 C 48.824219 1.082031 44.167969 0.496094 39.121094 0.496094 L 0.15625 0.496094 L 0.15625 101.378906 L 40.867188 101.378906 C 46.515625 101.378906 51.675781 100.652344 56.21875 99.199219 C 60.699219 97.78125 64.523438 95.6875 67.582031 93.019531 C 70.628906 90.347656 73.003906 87.09375 74.664062 83.304688 C 76.3125 79.511719 77.152344 75.191406 77.152344 70.464844 C 77.152344 66.378906 76.550781 62.90625 75.359375 60.152344 " clip-rule="nonzero"/></clipPath><clipPath id="f6f0749885"><rect x="0" width="78" y="0" height="102"/></clipPath><clipPath id="bea4e50580"><path d="M 945.898438 541.496094 L 977.023438 541.496094 L 977.023438 642.378906 L 945.898438 642.378906 Z M 945.898438 541.496094 " clip-rule="nonzero"/></clipPath><clipPath id="b5fba68f1e"><path d="M 0.898438 0.496094 L 32.023438 0.496094 L 32.023438 101.378906 L 0.898438 101.378906 Z M 0.898438 0.496094 " clip-rule="nonzero"/></clipPath><clipPath id="b5348dab26"><rect x="0" width="33" y="0" height="102"/></clipPath><clipPath id="398fd65610"><path d="M 989.351562 538.769531 L 1052.367188 538.769531 L 1052.367188 645.273438 L 989.351562 645.273438 Z M 989.351562 538.769531 " clip-rule="nonzero"/></clipPath><clipPath id="77d201274d"><path d="M 1052.160156 614.007812 C 1052.160156 618.355469 1051.457031 622.480469 1050.082031 626.269531 C 1048.734375 629.972656 1046.609375 633.25 1043.769531 636.003906 C 1040.902344 638.765625 1037.167969 640.976562 1032.652344 642.605469 C 1028.070312 644.246094 1022.542969 645.070312 1016.191406 645.070312 C 1012.289062 645.070312 1008.617188 644.882812 1005.292969 644.53125 C 1001.933594 644.171875 998.941406 643.734375 996.332031 643.210938 C 994.019531 642.804688 991.851562 642.347656 989.867188 641.824219 L 989.867188 615.011719 C 991.335938 615.378906 992.835938 615.703125 994.367188 615.957031 C 996.527344 616.488281 999.015625 616.921875 1001.753906 617.246094 C 1004.527344 617.570312 1007.355469 617.742188 1010.167969 617.742188 C 1018.832031 617.742188 1019.761719 612.363281 1019.761719 610.054688 C 1019.761719 608.035156 1018.777344 606.070312 1016.84375 604.203125 C 1015.296875 602.710938 1013.347656 601.0625 1011.023438 599.285156 C 1008.757812 597.550781 1006.335938 595.625 1003.808594 593.554688 C 1001.347656 591.542969 999.007812 589.203125 996.847656 586.59375 C 994.734375 584.027344 992.957031 581.109375 991.566406 577.902344 C 990.234375 574.78125 989.550781 571.121094 989.550781 567.027344 C 989.550781 562.445312 990.382812 558.355469 992.027344 554.890625 C 993.652344 551.425781 995.941406 548.507812 998.8125 546.207031 C 1001.722656 543.875 1005.21875 542.074219 1009.199219 540.835938 C 1013.226562 539.605469 1017.609375 538.96875 1022.207031 538.96875 C 1024.628906 538.96875 1027.101562 539.097656 1029.5625 539.351562 L 1036.285156 540.054688 C 1037.910156 540.273438 1039.515625 540.492188 1041.097656 540.722656 L 1041.097656 565.707031 C 1041.007812 565.707031 1040.925781 565.691406 1040.835938 565.683594 C 1039.980469 565.578125 1039.011719 565.472656 1037.941406 565.359375 C 1036.800781 565.25 1035.609375 565.203125 1034.394531 565.203125 C 1033.726562 565.203125 1032.894531 565.226562 1031.886719 565.285156 C 1030.792969 565.347656 1029.742188 565.496094 1028.761719 565.75 C 1027.582031 566.035156 1026.53125 566.570312 1025.632812 567.320312 C 1024.824219 568 1023.855469 569.246094 1023.855469 571.300781 C 1023.855469 572.867188 1024.777344 574.429688 1026.765625 576.199219 C 1028.234375 577.503906 1030.011719 579.019531 1032.054688 580.691406 C 1034.085938 582.355469 1036.351562 584.292969 1038.78125 586.472656 C 1041.121094 588.566406 1043.304688 591.003906 1045.246094 593.6875 C 1047.1875 596.367188 1048.847656 599.449219 1050.195312 602.847656 C 1051.5 606.144531 1052.167969 609.902344 1052.167969 614.015625 " clip-rule="nonzero"/></clipPath><clipPath id="84bc66f5df"><path d="M 0.519531 0.800781 L 63.367188 0.800781 L 63.367188 107.121094 L 0.519531 107.121094 Z M 0.519531 0.800781 " clip-rule="nonzero"/></clipPath><clipPath id="a3639794d1"><path d="M 63.160156 76.007812 C 63.160156 80.355469 62.457031 84.480469 61.082031 88.269531 C 59.734375 91.972656 57.609375 95.25 54.769531 98.003906 C 51.902344 100.765625 48.167969 102.976562 43.652344 104.605469 C 39.070312 106.246094 33.542969 107.070312 27.191406 107.070312 C 23.289062 107.070312 19.617188 106.882812 16.292969 106.53125 C 12.933594 106.171875 9.941406 105.734375 7.332031 105.210938 C 5.019531 104.804688 2.851562 104.347656 0.867188 103.824219 L 0.867188 77.011719 C 2.335938 77.378906 3.835938 77.703125 5.367188 77.957031 C 7.527344 78.488281 10.015625 78.921875 12.753906 79.246094 C 15.527344 79.570312 18.355469 79.742188 21.167969 79.742188 C 29.832031 79.742188 30.761719 74.363281 30.761719 72.054688 C 30.761719 70.035156 29.777344 68.070312 27.84375 66.203125 C 26.296875 64.710938 24.347656 63.0625 22.023438 61.285156 C 19.757812 59.550781 17.335938 57.625 14.808594 55.554688 C 12.347656 53.542969 10.007812 51.203125 7.847656 48.59375 C 5.734375 46.027344 3.957031 43.109375 2.566406 39.902344 C 1.234375 36.78125 0.550781 33.121094 0.550781 29.027344 C 0.550781 24.445312 1.382812 20.355469 3.027344 16.890625 C 4.652344 13.425781 6.941406 10.507812 9.8125 8.207031 C 12.722656 5.875 16.21875 4.074219 20.199219 2.835938 C 24.226562 1.605469 28.609375 0.96875 33.207031 0.96875 C 35.628906 0.96875 38.101562 1.097656 40.5625 1.351562 L 47.285156 2.054688 C 48.910156 2.273438 50.515625 2.492188 52.097656 2.722656 L 52.097656 27.707031 C 52.007812 27.707031 51.925781 27.691406 51.835938 27.683594 C 50.980469 27.578125 50.011719 27.472656 48.941406 27.359375 C 47.800781 27.25 46.609375 27.203125 45.394531 27.203125 C 44.726562 27.203125 43.894531 27.226562 42.886719 27.285156 C 41.792969 27.347656 40.742188 27.496094 39.761719 27.75 C 38.582031 28.035156 37.53125 28.570312 36.632812 29.320312 C 35.824219 30 34.855469 31.246094 34.855469 33.300781 C 34.855469 34.867188 35.777344 36.429688 37.765625 38.199219 C 39.234375 39.503906 41.011719 41.019531 43.054688 42.691406 C 45.085938 44.355469 47.351562 46.292969 49.78125 48.472656 C 52.121094 50.566406 54.304688 53.003906 56.246094 55.6875 C 58.1875 58.367188 59.847656 61.449219 61.195312 64.847656 C 62.5 68.144531 63.167969 71.902344 63.167969 76.015625 " clip-rule="nonzero"/></clipPath><clipPath id="222bb5cb00"><rect x="0" width="64" y="0" height="108"/></clipPath><clipPath id="32d8c30e4b"><path d="M 1051.238281 541.496094 L 1120.34375 541.496094 L 1120.34375 564.566406 L 1051.238281 564.566406 Z M 1070.691406 564.566406 L 1100.875 564.566406 L 1100.875 642.386719 L 1070.691406 642.386719 Z M 1070.691406 564.566406 " clip-rule="nonzero"/></clipPath><clipPath id="7ca555a04f"><path d="M 0.238281 0.496094 L 69.34375 0.496094 L 69.34375 23.566406 L 0.238281 23.566406 Z M 19.691406 23.566406 L 49.875 23.566406 L 49.875 101.386719 L 19.691406 101.386719 Z M 19.691406 23.566406 " clip-rule="nonzero"/></clipPath><clipPath id="7e31dae698"><rect x="0" width="70" y="0" height="102"/></clipPath><clipPath id="e8ade35627"><path d="M 1130.289062 541.433594 L 1213.273438 541.433594 L 1213.273438 642.613281 L 1130.289062 642.613281 Z M 1130.289062 541.433594 " clip-rule="nonzero"/></clipPath><clipPath id="8db049c0ca"><path d="M 1175.070312 590.320312 C 1171.902344 592.355469 1168.046875 593.382812 1163.617188 593.382812 L 1159.566406 593.382812 L 1159.566406 565.355469 L 1163.617188 565.355469 C 1168.046875 565.355469 1171.902344 566.382812 1175.0625 568.414062 C 1178.554688 570.65625 1180.324219 574.339844 1180.324219 579.371094 C 1180.324219 584.40625 1178.5625 588.101562 1175.074219 590.328125 M 1194.425781 609.238281 L 1196.113281 608.023438 C 1198.558594 606.25 1200.785156 604.078125 1202.75 601.519531 C 1204.394531 599.300781 1205.9375 596.390625 1207.332031 592.894531 C 1208.699219 589.496094 1209.386719 585.257812 1209.386719 580.308594 C 1209.386719 574.039062 1208.257812 568.429688 1206.042969 563.652344 C 1203.832031 558.875 1200.710938 554.808594 1196.78125 551.570312 C 1192.820312 548.300781 1188.050781 545.785156 1182.613281 544.085938 C 1177.109375 542.367188 1171.035156 541.496094 1164.554688 541.496094 L 1130.488281 541.496094 L 1130.488281 642.386719 L 1159.558594 642.386719 L 1159.558594 609.523438 L 1179 642.378906 L 1213.265625 642.378906 Z M 1194.425781 609.238281 " clip-rule="nonzero"/></clipPath><clipPath id="cbc226468e"><path d="M 0.398438 0.441406 L 83.273438 0.441406 L 83.273438 101.480469 L 0.398438 101.480469 Z M 0.398438 0.441406 " clip-rule="nonzero"/></clipPath><clipPath id="202c89fe8e"><path d="M 45.070312 49.320312 C 41.902344 51.355469 38.046875 52.382812 33.617188 52.382812 L 29.566406 52.382812 L 29.566406 24.355469 L 33.617188 24.355469 C 38.046875 24.355469 41.902344 25.382812 45.0625 27.414062 C 48.554688 29.65625 50.324219 33.339844 50.324219 38.371094 C 50.324219 43.40625 48.5625 47.101562 45.074219 49.328125 M 64.425781 68.238281 L 66.113281 67.023438 C 68.558594 65.25 70.785156 63.078125 72.75 60.519531 C 74.394531 58.300781 75.9375 55.390625 77.332031 51.894531 C 78.699219 48.496094 79.386719 44.257812 79.386719 39.308594 C 79.386719 33.039062 78.257812 27.429688 76.042969 22.652344 C 73.832031 17.875 70.710938 13.808594 66.78125 10.570312 C 62.820312 7.300781 58.050781 4.785156 52.613281 3.085938 C 47.109375 1.367188 41.035156 0.496094 34.554688 0.496094 L 0.488281 0.496094 L 0.488281 101.386719 L 29.558594 101.386719 L 29.558594 68.523438 L 49 101.378906 L 83.265625 101.378906 Z M 64.425781 68.238281 " clip-rule="nonzero"/></clipPath><clipPath id="377a701563"><rect x="0" width="84" y="0" height="102"/></clipPath><clipPath id="9ba2dd501b"><path d="M 1219.484375 538.769531 L 1325.992188 538.769531 L 1325.992188 645.273438 L 1219.484375 645.273438 Z M 1219.484375 538.769531 " clip-rule="nonzero"/></clipPath><clipPath id="8319f81e22"><path d="M 1295.121094 601.558594 C 1293.855469 604.503906 1292.082031 607.105469 1289.894531 609.320312 C 1287.6875 611.523438 1285.078125 613.28125 1282.136719 614.546875 C 1279.183594 615.828125 1275.972656 616.472656 1272.597656 616.472656 C 1269.238281 616.472656 1266.027344 615.828125 1263.058594 614.546875 C 1260.109375 613.28125 1257.507812 611.507812 1255.3125 609.320312 C 1253.105469 607.113281 1251.335938 604.503906 1250.070312 601.558594 C 1248.800781 598.585938 1248.140625 595.375 1248.140625 592.015625 C 1248.140625 588.65625 1248.800781 585.445312 1250.070312 582.484375 C 1251.335938 579.535156 1253.105469 576.933594 1255.3125 574.722656 C 1257.5 572.53125 1260.109375 570.761719 1263.058594 569.496094 C 1266.035156 568.210938 1269.238281 567.566406 1272.597656 567.566406 C 1275.957031 567.566406 1279.167969 568.210938 1282.136719 569.496094 C 1285.085938 570.761719 1287.6875 572.53125 1289.894531 574.722656 C 1292.097656 576.925781 1293.855469 579.535156 1295.121094 582.484375 C 1296.402344 585.453125 1297.046875 588.664062 1297.046875 592.015625 C 1297.046875 595.371094 1296.402344 598.585938 1295.121094 601.558594 M 1321.492188 571.421875 C 1318.714844 564.972656 1314.882812 559.28125 1310.121094 554.507812 C 1305.34375 549.730469 1299.652344 545.90625 1293.207031 543.125 C 1286.773438 540.363281 1279.84375 538.96875 1272.589844 538.96875 C 1265.355469 538.96875 1258.421875 540.363281 1251.996094 543.125 C 1245.554688 545.90625 1239.859375 549.730469 1235.082031 554.507812 C 1230.304688 559.28125 1226.480469 564.972656 1223.714844 571.421875 C 1220.953125 577.84375 1219.542969 584.78125 1219.542969 592.015625 C 1219.542969 599.269531 1220.953125 606.191406 1223.714844 612.613281 C 1226.488281 619.070312 1230.304688 624.753906 1235.082031 629.523438 C 1239.859375 634.300781 1245.554688 638.132812 1251.996094 640.910156 C 1258.421875 643.667969 1265.355469 645.0625 1272.589844 645.0625 C 1279.828125 645.0625 1286.765625 643.667969 1293.199219 640.910156 C 1299.644531 638.132812 1305.335938 634.300781 1310.113281 629.523438 C 1314.882812 624.753906 1318.714844 619.0625 1321.484375 612.613281 C 1324.242188 606.191406 1325.652344 599.253906 1325.652344 592.015625 C 1325.652344 584.78125 1324.242188 577.847656 1321.484375 571.421875 " clip-rule="nonzero"/></clipPath><clipPath id="1f2d38df0a"><path d="M 0.484375 0.800781 L 106.761719 0.800781 L 106.761719 107.121094 L 0.484375 107.121094 Z M 0.484375 0.800781 " clip-rule="nonzero"/></clipPath><clipPath id="0ede9f52ce"><path d="M 76.121094 63.558594 C 74.855469 66.503906 73.082031 69.105469 70.894531 71.320312 C 68.6875 73.523438 66.078125 75.28125 63.136719 76.546875 C 60.183594 77.828125 56.972656 78.472656 53.597656 78.472656 C 50.238281 78.472656 47.027344 77.828125 44.058594 76.546875 C 41.109375 75.28125 38.507812 73.507812 36.3125 71.320312 C 34.105469 69.113281 32.335938 66.503906 31.070312 63.558594 C 29.800781 60.585938 29.140625 57.375 29.140625 54.015625 C 29.140625 50.65625 29.800781 47.445312 31.070312 44.484375 C 32.335938 41.535156 34.105469 38.933594 36.3125 36.722656 C 38.5 34.53125 41.109375 32.761719 44.058594 31.496094 C 47.035156 30.210938 50.238281 29.566406 53.597656 29.566406 C 56.957031 29.566406 60.167969 30.210938 63.136719 31.496094 C 66.085938 32.761719 68.6875 34.53125 70.894531 36.722656 C 73.097656 38.925781 74.855469 41.535156 76.121094 44.484375 C 77.402344 47.453125 78.046875 50.664062 78.046875 54.015625 C 78.046875 57.371094 77.402344 60.585938 76.121094 63.558594 M 102.492188 33.421875 C 99.714844 26.972656 95.882812 21.28125 91.121094 16.507812 C 86.34375 11.730469 80.652344 7.90625 74.207031 5.125 C 67.773438 2.363281 60.84375 0.96875 53.589844 0.96875 C 46.355469 0.96875 39.421875 2.363281 32.996094 5.125 C 26.554688 7.90625 20.859375 11.730469 16.082031 16.507812 C 11.304688 21.28125 7.480469 26.972656 4.714844 33.421875 C 1.953125 39.84375 0.542969 46.78125 0.542969 54.015625 C 0.542969 61.269531 1.953125 68.191406 4.714844 74.613281 C 7.488281 81.070312 11.304688 86.753906 16.082031 91.523438 C 20.859375 96.300781 26.554688 100.132812 32.996094 102.910156 C 39.421875 105.667969 46.355469 107.0625 53.589844 107.0625 C 60.828125 107.0625 67.765625 105.667969 74.199219 102.910156 C 80.644531 100.132812 86.335938 96.300781 91.113281 91.523438 C 95.882812 86.753906 99.714844 81.0625 102.484375 74.613281 C 105.242188 68.191406 106.652344 61.253906 106.652344 54.015625 C 106.652344 46.78125 105.242188 39.847656 102.484375 33.421875 " clip-rule="nonzero"/></clipPath><clipPath id="76cd897e3c"><rect x="0" width="107" y="0" height="108"/></clipPath></defs><rect x="-144" width="1728" fill="#ffffff" y="-80.999999" height="971.999992" fill-opacity="1"/><rect x="-144" width="1728" fill="#ec2224" y="-80.999999" height="971.999992" fill-opacity="1"/><g clip-path="url(#5ffbaab28f)"><g clip-path="url(#7ec80b9a2b)"><g transform="matrix(1, 0, 0, 1, 342, 168)"><g clip-path="url(#aac3d331ac)"><g clip-path="url(#6a20986d03)"><g clip-path="url(#f59cc4dc7d)"><rect x="-658.8" width="2073.6" fill="#321112" height="1166.39999" y="-346.199998" fill-opacity="1"/></g></g></g></g></g></g><g clip-path="url(#9dbe5fd6ce)"><g clip-path="url(#aac5059124)"><g transform="matrix(1, 0, 0, 1, 606, 168)"><g clip-path="url(#b45931af30)"><g clip-path="url(#fbc9bd86d3)"><g clip-path="url(#2b3898c594)"><rect x="-922.8" width="2073.6" fill="#321112" height="1166.39999" y="-346.199998" fill-opacity="1"/></g></g></g></g></g></g><g clip-path="url(#feac3e694b)"><g clip-path="url(#557175d7b9)"><g transform="matrix(1, 0, 0, 1, 125, 168)"><g clip-path="url(#62c63156fc)"><g clip-path="url(#1b461398d2)"><g clip-path="url(#607882b46a)"><rect x="-441.8" width="2073.6" fill="#321112" height="1166.39999" y="-346.199998" fill-opacity="1"/></g></g></g></g></g></g><g clip-path="url(#c736c95837)"><g clip-path="url(#b3ddfdb65d)"><g transform="matrix(1, 0, 0, 1, 857, 541)"><g clip-path="url(#f6f0749885)"><g clip-path="url(#a13b8a7370)"><g clip-path="url(#2404a2225d)"><path fill="#321112" d="M 0.15625 0.496094 L 77.15625 0.496094 L 77.15625 101.257812 L 0.15625 101.257812 Z M 0.15625 0.496094 " fill-opacity="1" fill-rule="nonzero"/></g></g></g></g></g></g><g clip-path="url(#bea4e50580)"><g transform="matrix(1, 0, 0, 1, 945, 541)"><g clip-path="url(#b5348dab26)"><g clip-path="url(#b5fba68f1e)"><path fill="#321112" d="M 0.898438 0.496094 L 32.023438 0.496094 L 32.023438 101.417969 L 0.898438 101.417969 Z M 0.898438 0.496094 " fill-opacity="1" fill-rule="nonzero"/></g></g></g></g><g clip-path="url(#398fd65610)"><g clip-path="url(#77d201274d)"><g transform="matrix(1, 0, 0, 1, 989, 538)"><g clip-path="url(#222bb5cb00)"><g clip-path="url(#84bc66f5df)"><g clip-path="url(#a3639794d1)"><rect x="-1305.8" width="2073.6" fill="#321112" height="1166.39999" y="-716.199998" fill-opacity="1"/></g></g></g></g></g></g><g clip-path="url(#32d8c30e4b)"><g transform="matrix(1, 0, 0, 1, 1051, 541)"><g clip-path="url(#7e31dae698)"><g clip-path="url(#7ca555a04f)"><rect x="-1367.8" width="2073.6" fill="#321112" height="1166.39999" y="-719.199998" fill-opacity="1"/></g></g></g></g><g clip-path="url(#e8ade35627)"><g clip-path="url(#8db049c0ca)"><g transform="matrix(1, 0, 0, 1, 1130, 541)"><g clip-path="url(#377a701563)"><g clip-path="url(#cbc226468e)"><g clip-path="url(#202c89fe8e)"><rect x="-1446.8" width="2073.6" fill="#321112" height="1166.39999" y="-719.199998" fill-opacity="1"/></g></g></g></g></g></g><g clip-path="url(#9ba2dd501b)"><g clip-path="url(#8319f81e22)"><g transform="matrix(1, 0, 0, 1, 1219, 538)"><g clip-path="url(#76cd897e3c)"><g clip-path="url(#1f2d38df0a)"><g clip-path="url(#0ede9f52ce)"><rect x="-1535.8" width="2073.6" fill="#321112" height="1166.39999" y="-716.199998" fill-opacity="1"/></g></g></g></g></g></g></svg>